<svg width="22" height="16" viewBox="0 0 22 16" fill="none" xmlns="http://www.w3.org/2000/svg">
<path d="M20.6316 0H10.807H0.98247C0.439881 0 0 0.43988 0 0.98247V15.0175C0 15.5601 0.439881 16 0.98247 16H10.807H20.6316C21.1742 16 21.6141 15.5601 21.6141 15.0175V0.98247C21.6141 0.43988 21.1742 0 20.6316 0Z" fill="#5286F9"/>
<path d="M11.5578 5.2042C11.7737 5.45158 11.9618 5.72387 12.1165 6.0165C12.4301 6.60924 12.6086 7.28405 12.6086 8.00002C12.6086 8.71599 12.4301 9.39071 12.1165 9.98353C11.9618 10.2762 11.7737 10.5484 11.5578 10.7958C11.3356 11.0503 11.0837 11.2781 10.8074 11.4741C11.502 11.9665 12.3492 12.2573 13.2635 12.2573C15.611 12.2573 17.5209 10.3475 17.5209 8.00002C17.5209 5.65257 15.611 3.74268 13.2635 3.74268C12.3492 3.74268 11.502 4.03337 10.8074 4.52589C11.0836 4.72185 11.3355 4.94969 11.5578 5.2042Z" fill="#FFB655"/>
<path d="M12.1169 6.01654C11.9621 5.72382 11.774 5.45162 11.5581 5.20424C11.3358 4.94964 11.084 4.72193 10.8077 4.52601C10.1132 4.03349 9.26587 3.7428 8.35154 3.7428C6.00405 3.7428 4.09424 5.65265 4.09424 8.0001C4.09424 10.3475 6.00409 12.2574 8.35154 12.2574C9.26587 12.2574 10.1132 11.9667 10.8077 11.4742C11.084 11.2783 11.3358 11.0504 11.5581 10.7959C11.774 10.5485 11.9621 10.2762 12.1169 9.9837C12.4304 9.39087 12.6089 8.71606 12.6089 8.00018C12.6089 7.28405 12.4304 6.60928 12.1169 6.01654Z" fill="#D8143A"/>
<path d="M8.35089 12.2574C6.0034 12.2574 4.09359 10.3476 4.09359 8.00013C4.09359 5.65268 6.00344 3.74283 8.35089 3.74283C9.26523 3.74283 10.1124 4.03352 10.807 4.52604V0H0.98247C0.439881 0 0 0.43988 0 0.98247V15.0175C0 15.5601 0.439881 16 0.98247 16H10.807V11.4741C10.1124 11.9666 9.26523 12.2574 8.35089 12.2574Z" fill="#3D6DEB"/>
</svg>
