<svg width="28" height="22" viewBox="0 0 17 12" fill="none" xmlns="http://www.w3.org/2000/svg">
<path fill-rule="evenodd" clip-rule="evenodd" d="M16.3417 1.56303C16.3417 1.98899 16.1803 2.38912 15.9028 2.66744L7.08156 11.5368C6.77172 11.8308 6.3666 11.9999 5.95965 11.9999C5.54876 11.9999 5.14701 11.828 4.86123 11.5413L0.438844 7.10438C0.161436 6.82606 0 6.42593 0 5.99996C0 5.5969 0.164086 5.20937 0.457915 4.89573C0.759275 4.61189 1.14407 4.45352 1.56505 4.43694C1.97563 4.43912 2.35704 4.59428 2.65936 4.88122L5.95965 8.19236L13.6823 0.444282C13.9847 0.15734 14.3661 0.00218679 14.7766 0C15.2005 0.0166939 15.584 0.176845 15.8839 0.477651C16.1733 0.768075 16.3417 1.15423 16.3417 1.56303Z" fill="royalblue"/>
</svg>
