<svg width="10" height="18" viewBox="0 0 10 18" fill="none" xmlns="http://www.w3.org/2000/svg">
<g clip-path="url(#clip0)">
<path d="M0.404174 2.27368C0.169493 2.01654 0.0391151 1.6782 0.0521529 1.32632C0.052153 0.974436 0.182531 0.649623 0.430249 0.392481C0.66493 0.148872 0.990875 -5.56982e-07 1.32986 -5.27347e-07C1.66884 -4.97712e-07 1.99479 0.121805 2.24251 0.365414L9.6219 8.02556C9.73924 8.14737 9.83051 8.29624 9.8957 8.45865C9.96089 8.62105 10 8.79699 10 8.97293C10 9.14887 9.96089 9.32481 9.8957 9.50075C9.83051 9.66316 9.73924 9.81203 9.6219 9.93383L2.2425 17.594C2.12516 17.7158 1.98175 17.8241 1.82529 17.8917C1.6558 17.9594 1.48631 18 1.31682 18C1.14733 18 0.964798 17.9729 0.808344 17.9053C0.651891 17.8376 0.508475 17.7293 0.378097 17.6075C0.260756 17.4857 0.169492 17.3233 0.104303 17.1609C0.0260759 16.9985 3.98048e-07 16.8226 4.14612e-07 16.6331C4.29993e-07 16.4571 0.0391138 16.2812 0.104303 16.1188C0.169492 15.9564 0.273794 15.8075 0.404173 15.6722L6.85789 8.97293L5.63233 7.71429L0.404174 2.27368Z" fill="#000000"/>
</g>
<defs>
<clipPath id="clip0">
<rect width="10" height="18" fill="white" transform="translate(10 18) rotate(-180)"/>
</clipPath>
</defs>
</svg>
