<svg width="23" height="25" viewBox="0 0 23 25" fill="none" xmlns="http://www.w3.org/2000/svg">
<path d="M22.953 12.2998C22.953 11.3105 22.8749 10.5885 22.7058 9.83984H11.7107V14.3052H18.1646C18.0345 15.4149 17.3318 17.086 15.7704 18.209L15.7485 18.3585L19.2249 21.1257L19.4658 21.1504C21.6778 19.0513 22.953 15.963 22.953 12.2998Z" fill="white"/>
<path d="M11.7106 24.0648C14.8725 24.0648 17.5269 22.9952 19.4657 21.1503L15.7703 18.2089C14.7815 18.9175 13.4542 19.4122 11.7106 19.4122C8.61383 19.4122 5.98544 17.3133 5.04849 14.4121L4.91115 14.4241L1.2963 17.2985L1.24902 17.4335C3.17477 21.3641 7.13041 24.0648 11.7106 24.0648Z" fill="white"/>
<path d="M5.04858 14.4121C4.80136 13.6634 4.65828 12.8612 4.65828 12.0323C4.65828 11.2034 4.80136 10.4012 5.03557 9.65256L5.02902 9.49311L1.36887 6.57251L1.24912 6.63104C0.455423 8.26212 0 10.0938 0 12.0323C0 13.9709 0.455423 15.8024 1.24912 17.4335L5.04858 14.4121" fill="white"/>
<path d="M11.7111 4.65252C13.9101 4.65252 15.3934 5.62848 16.2393 6.44407L19.5443 3.12844C17.5145 1.18988 14.873 0 11.7111 0C7.13089 0 3.17526 2.7006 1.24951 6.63117L5.03597 9.6527C5.98592 6.75154 8.61431 4.65252 11.7111 4.65252" fill="white"/>
</svg>
