<svg width="17" height="17" viewBox="0 0 17 17" fill="none" xmlns="http://www.w3.org/2000/svg">
<path d="M16.3705 14.5354L16.3696 14.5345L11.4972 9.83969L11.497 9.83946L10.3927 8.7894L16.3696 3.04476C16.4945 2.92466 16.5962 2.79091 16.6602 2.64321C16.7233 2.49784 16.7616 2.33926 16.7616 2.17953C16.7616 2.01175 16.7367 1.85175 16.6595 1.70258C16.5972 1.55908 16.509 1.41333 16.3939 1.30263L16.3939 1.30258L16.3919 1.30086C16.2681 1.19373 16.1297 1.09654 15.9768 1.03533C15.8234 0.973904 15.6466 0.95 15.4844 0.95C15.319 0.95 15.1551 0.986675 14.9932 1.04653L14.9932 1.04651L14.9919 1.04701C14.8391 1.10822 14.7001 1.2056 14.587 1.31431L7.70981 7.92437C7.59512 8.0346 7.50648 8.16877 7.44342 8.31424L7.4434 8.31423L7.44287 8.31555C7.38047 8.47151 7.34209 8.62974 7.34209 8.78959C7.34209 8.94932 7.3804 9.1079 7.44342 9.25327C7.50648 9.39874 7.59512 9.53291 7.70981 9.64314L14.587 16.2532L14.587 16.2532L14.588 16.2541C14.8291 16.4737 15.1453 16.5825 15.4722 16.5825C15.8014 16.5825 16.1175 16.4487 16.3453 16.2298C16.5852 15.9992 16.7127 15.7065 16.713 15.389C16.7254 15.0707 16.5979 14.766 16.3705 14.5354Z" fill="#181725" stroke="#181725" stroke-width="0.1"/>
<path d="M1.34115 2.99709L1.34207 2.998L6.21445 7.69278L6.21469 7.69301L7.31894 8.74307L1.34211 14.4877C1.21716 14.6078 1.11546 14.7416 1.05143 14.8893C0.988407 15.0346 0.950095 15.1932 0.950095 15.3529C0.950095 15.5207 0.974931 15.6807 1.05212 15.8299C1.11451 15.9734 1.20264 16.1191 1.31781 16.2298L1.31777 16.2299L1.31975 16.2316C1.4436 16.3387 1.58201 16.4359 1.73484 16.4971C1.88823 16.5586 2.06507 16.5825 2.2273 16.5825C2.39267 16.5825 2.5566 16.5458 2.71851 16.4859L2.71852 16.486L2.71976 16.4855C2.87259 16.4243 3.01154 16.3269 3.12464 16.2182L10.0019 9.6081C10.1165 9.49787 10.2052 9.3637 10.2683 9.21823L10.2683 9.21824L10.2688 9.21692C10.3312 9.06096 10.3696 8.90273 10.3696 8.74288C10.3696 8.58315 10.3313 8.42457 10.2683 8.27921C10.2052 8.13373 10.1165 7.99956 10.0019 7.88933L3.12464 1.27927L3.12466 1.27926L3.12366 1.27835C2.88256 1.05881 2.56635 0.949998 2.23945 0.949998C1.91023 0.949998 1.59416 1.08373 1.36642 1.30263C1.12646 1.53326 0.998966 1.826 0.998699 2.1435C0.986257 2.46173 1.1138 2.76643 1.34115 2.99709Z" fill="#181725" stroke="#181725" stroke-width="0.1"/>
</svg>
