<svg width="22" height="22" viewBox="0 0 16 16" fill="none" xmlns="http://www.w3.org/2000/svg">
<path d="M14.8581 13.197L14.8572 13.1961L10.4654 8.96431L10.4652 8.96408L9.47355 8.02113L14.8572 2.84665C14.9702 2.73806 15.0623 2.61699 15.1203 2.4831C15.1773 2.35156 15.212 2.20795 15.212 2.0632C15.212 1.91154 15.1896 1.76652 15.1196 1.63117C15.0632 1.50148 14.9835 1.36956 14.8791 1.26923L14.8791 1.26918L14.8771 1.26746C14.7653 1.1707 14.6401 1.08272 14.5016 1.02727C14.3626 0.9716 14.2025 0.95 14.0559 0.95C13.9061 0.95 13.7577 0.98322 13.6114 1.03732L13.6114 1.0373L13.6102 1.0378C13.4717 1.09324 13.3459 1.18141 13.2436 1.27975L7.04468 7.23788C6.94078 7.33775 6.86053 7.45925 6.80346 7.5909L6.80344 7.59089L6.80292 7.59221C6.7465 7.73319 6.71172 7.87645 6.71172 8.02133C6.71172 8.16608 6.74644 8.30969 6.80346 8.44123C6.86053 8.57288 6.94078 8.69438 7.04468 8.79425L13.2436 14.7524L13.2436 14.7524L13.2446 14.7533C13.4629 14.9521 13.7492 15.0505 14.0449 15.0505C14.343 15.0505 14.6291 14.9295 14.8353 14.7313C15.0525 14.5226 15.168 14.2575 15.1682 13.9699C15.1795 13.6816 15.0639 13.4057 14.8581 13.197Z" fill="#000000" stroke="#000000" stroke-width="0"/>
<path d="M1.30397 2.80365L1.30489 2.80456L5.69671 7.0363L5.69695 7.03653L6.68856 7.97948L1.30493 13.154C1.19196 13.2625 1.09984 13.3836 1.0418 13.5175C0.984779 13.6491 0.950061 13.7927 0.950061 13.9374C0.950061 14.0891 0.9725 14.2341 1.0425 14.3694C1.0989 14.4991 1.17864 14.6311 1.28303 14.7314L1.28298 14.7314L1.28496 14.7331C1.39682 14.8299 1.52206 14.9179 1.66051 14.9733C1.79952 15.029 1.95958 15.0506 2.10623 15.0506C2.25602 15.0506 2.40437 15.0174 2.5507 14.9633L2.55071 14.9633L2.55196 14.9628C2.6904 14.9074 2.81617 14.8192 2.91849 14.7209L9.11743 8.76273C9.22133 8.66286 9.30158 8.54136 9.35865 8.40971L9.35867 8.40972L9.35919 8.4084C9.41561 8.26742 9.45039 8.12416 9.45039 7.97928C9.45039 7.83453 9.41567 7.69093 9.35865 7.55938C9.30158 7.42773 9.22133 7.30623 9.11743 7.20636L2.91849 1.24824L2.9185 1.24822L2.9175 1.24731C2.69917 1.04851 2.41293 0.950063 2.11719 0.950063C1.81912 0.950063 1.53301 1.07113 1.32684 1.26929C1.10965 1.47804 0.994138 1.74314 0.993871 2.03068C0.982627 2.31897 1.09819 2.59487 1.30397 2.80365Z" fill="#000000" stroke="#000000" stroke-width="0"/>
</svg>
