<svg width="16" height="16" viewBox="0 0 16 16" fill="none" xmlns="http://www.w3.org/2000/svg">
<path fill-rule="evenodd" clip-rule="evenodd" d="M0 7.76223C0 12.0493 3.47515 15.5245 7.76223 15.5245C12.0493 15.5245 15.5245 12.0493 15.5245 7.76223C15.5245 3.47515 12.0493 0 7.76223 0C3.47515 0 0 3.47515 0 7.76223Z" fill="#C5C5C5"/>
<path d="M11.1127 10.3003L11.1127 10.3003L11.1118 10.2994L8.95176 8.21814L8.95153 8.21791L8.48308 7.77245L11.1118 5.24589C11.1691 5.1908 11.2167 5.12857 11.2469 5.05888C11.2761 4.99153 11.2941 4.91746 11.2941 4.84225C11.2941 4.76547 11.2828 4.69 11.2462 4.61885C11.2176 4.55334 11.1768 4.48561 11.1225 4.43343L11.1226 4.43338L11.1206 4.43166C11.0644 4.38304 11.0004 4.33786 10.9287 4.30916C10.8565 4.28024 10.7743 4.26934 10.7 4.26934C10.6226 4.26934 10.5466 4.28651 10.4726 4.31386L10.4726 4.31384L10.4714 4.31434C10.3997 4.34304 10.3352 4.38841 10.2829 4.43861L7.23411 7.369C7.1803 7.42072 7.13901 7.48339 7.10977 7.55084L7.10975 7.55083L7.10922 7.55215C7.08063 7.62359 7.06255 7.69731 7.06255 7.77265C7.06255 7.84785 7.08057 7.92192 7.10977 7.98927C7.13901 8.05673 7.1803 8.11939 7.23411 8.17111L10.2829 11.1015L10.2829 11.1015L10.2839 11.1024C10.3965 11.2049 10.5436 11.2552 10.6947 11.2552C10.848 11.2552 10.995 11.193 11.101 11.0912C11.2124 10.984 11.2723 10.8473 11.2725 10.6989C11.2782 10.5497 11.2183 10.4075 11.1127 10.3003Z" fill="white" stroke="white" stroke-width="0.1"/>
<path d="M4.41047 5.22419L4.41046 5.2242L4.41139 5.22509L6.57143 7.3064L6.57167 7.30663L7.04011 7.75208L4.41143 10.2786C4.35412 10.3337 4.30653 10.396 4.27632 10.4657C4.24712 10.533 4.2291 10.6071 4.2291 10.6823C4.2291 10.7591 4.24041 10.8345 4.27701 10.9057C4.30559 10.9712 4.34638 11.0389 4.40066 11.0911L4.40061 11.0912L4.4026 11.0929C4.4588 11.1415 4.52282 11.1867 4.59448 11.2154C4.6667 11.2443 4.74884 11.2552 4.82315 11.2552C4.90058 11.2552 4.97658 11.238 5.05056 11.2107L5.05057 11.2107L5.05181 11.2102C5.12348 11.1815 5.18802 11.1361 5.24025 11.0859L8.28908 8.15553C8.34289 8.10381 8.38418 8.04115 8.41343 7.97369L8.41345 7.9737L8.41397 7.97238C8.44256 7.90094 8.46064 7.82722 8.46064 7.75189C8.46064 7.67668 8.44262 7.60261 8.41343 7.53526C8.38418 7.46781 8.34289 7.40515 8.28908 7.35343L5.24025 4.42303L5.24026 4.42302L5.23926 4.42211C5.12668 4.31959 4.97957 4.26929 4.82853 4.26929C4.67518 4.26929 4.5282 4.33151 4.42221 4.43338C4.31077 4.5405 4.25091 4.67721 4.25065 4.82568C4.24497 4.97487 4.30487 5.11705 4.41047 5.22419Z" fill="white" stroke="white" stroke-width="0.1"/>
</svg>
