<svg width="90" height="90" viewBox="0 0 90 90" fill="none" xmlns="http://www.w3.org/2000/svg">
<g filter="url(#filter0_d)">
<rect x="24" y="16" width="42" height="42" rx="8" fill="#54A5DA"/>
</g>
<path d="M52.5 35.3333C52.5 41.1666 45 46.1666 45 46.1666C45 46.1666 37.5 41.1666 37.5 35.3333C37.5 33.3442 38.2902 31.4365 39.6967 30.03C41.1032 28.6235 43.0109 27.8333 45 27.8333C46.9891 27.8333 48.8968 28.6235 50.3033 30.03C51.7098 31.4365 52.5 33.3442 52.5 35.3333Z" fill="white" stroke="white" stroke-linecap="round" stroke-linejoin="round"/>
<path d="M45 37.8333C46.3807 37.8333 47.5 36.714 47.5 35.3333C47.5 33.9526 46.3807 32.8333 45 32.8333C43.6193 32.8333 42.5 33.9526 42.5 35.3333C42.5 36.714 43.6193 37.8333 45 37.8333Z" fill="#54A5DA"/>
<defs>
<filter id="filter0_d" x="0" y="0" width="90" height="90" filterUnits="userSpaceOnUse" color-interpolation-filters="sRGB">
<feFlood flood-opacity="0" result="BackgroundImageFix"/>
<feColorMatrix in="SourceAlpha" type="matrix" values="0 0 0 0 0 0 0 0 0 0 0 0 0 0 0 0 0 0 127 0"/>
<feOffset dy="8"/>
<feGaussianBlur stdDeviation="12"/>
<feColorMatrix type="matrix" values="0 0 0 0 0.329412 0 0 0 0 0.647059 0 0 0 0 0.854902 0 0 0 0.4 0"/>
<feBlend mode="normal" in2="BackgroundImageFix" result="effect1_dropShadow"/>
<feBlend mode="normal" in="SourceGraphic" in2="effect1_dropShadow" result="shape"/>
</filter>
</defs>
</svg>
