<svg width="88" height="88" viewBox="0 0 88 88" fill="none" xmlns="http://www.w3.org/2000/svg">
<g filter="url(#filter0_d)">
<circle cx="44" cy="36" r="20" fill="#FA5D5D"/>
</g>
<path d="M50 34.6667C50 39.3334 44 43.3334 44 43.3334C44 43.3334 38 39.3334 38 34.6667C38 33.0754 38.6321 31.5493 39.7574 30.424C40.8826 29.2988 42.4087 28.6667 44 28.6667C45.5913 28.6667 47.1174 29.2988 48.2426 30.424C49.3679 31.5493 50 33.0754 50 34.6667Z" fill="white" stroke="white" stroke-linecap="round" stroke-linejoin="round"/>
<path d="M44 36.6667C45.1046 36.6667 46 35.7713 46 34.6667C46 33.5621 45.1046 32.6667 44 32.6667C42.8954 32.6667 42 33.5621 42 34.6667C42 35.7713 42.8954 36.6667 44 36.6667Z" fill="#FA5D5D"/>
<defs>
<filter id="filter0_d" x="0" y="0" width="88" height="88" filterUnits="userSpaceOnUse" color-interpolation-filters="sRGB">
<feFlood flood-opacity="0" result="BackgroundImageFix"/>
<feColorMatrix in="SourceAlpha" type="matrix" values="0 0 0 0 0 0 0 0 0 0 0 0 0 0 0 0 0 0 127 0"/>
<feOffset dy="8"/>
<feGaussianBlur stdDeviation="12"/>
<feColorMatrix type="matrix" values="0 0 0 0 1 0 0 0 0 0.442667 0 0 0 0 0.129167 0 0 0 0.4 0"/>
<feBlend mode="normal" in2="BackgroundImageFix" result="effect1_dropShadow"/>
<feBlend mode="normal" in="SourceGraphic" in2="effect1_dropShadow" result="shape"/>
</filter>
</defs>
</svg>
