<svg width="18" height="20" viewBox="0 0 18 18" fill="none" xmlns="http://www.w3.org/2000/svg">
<path d="M17.749 8.93311C17.749 9.30893 17.6049 9.67224 17.3355 9.93532C17.0723 10.2047 16.7088 10.355 16.3329 10.355H10.6683V16.0175C10.6683 16.3933 10.5179 16.7566 10.2485 17.0197C9.98529 17.2828 9.62812 17.4331 9.25216 17.4331C8.87619 17.4331 8.51275 17.2828 8.24958 17.0197C7.98013 16.7566 7.82975 16.3933 7.82975 16.0175V10.355H2.16517C1.7892 10.355 1.42577 10.2047 1.16259 9.93532C0.89941 9.67224 0.749023 9.30893 0.749023 8.93311C0.749023 8.55728 0.89941 8.20024 1.16259 7.93089C1.42577 7.66781 1.7892 7.51748 2.16517 7.51748H7.82975V1.85499C7.82975 1.47916 7.98013 1.11586 8.24958 0.852781C8.51275 0.583437 8.87619 0.433105 9.25216 0.433105C9.62812 0.433105 9.98529 0.583437 10.2485 0.852781C10.5179 1.11586 10.6683 1.47916 10.6683 1.85499V7.51748H16.3329C16.7088 7.51748 17.0723 7.66781 17.3355 7.93089C17.6049 8.20024 17.749 8.55728 17.749 8.93311Z" fill="black"/>
</svg>
