<svg width="24" height="23" viewBox="0 0 24 23" fill="none" xmlns="http://www.w3.org/2000/svg">
<path d="M17.834 4.36923C18.119 4.09542 18.119 3.6515 17.834 3.37773L15.6583 1.28788C15.3732 1.01407 14.911 1.01411 14.626 1.28788L1.29976 14.0882C1.01474 14.362 1.0147 14.8059 1.29976 15.0797L3.47547 17.1696C3.76053 17.4434 4.22268 17.4434 4.50771 17.1696C5.12278 16.5788 6.12394 16.5788 6.73904 17.1696C7.35414 17.7604 7.35414 18.722 6.73904 19.3129C6.45402 19.5866 6.45398 20.0306 6.73904 20.3044L8.91475 22.3942C9.19981 22.668 9.66196 22.668 9.94699 22.3942L23.2732 9.59385C23.5583 9.32005 23.5583 8.87613 23.2732 8.60235L21.0975 6.51251C20.8125 6.2387 20.3503 6.23874 20.0653 6.51251C19.4502 7.10331 18.4491 7.10333 17.834 6.51251C17.2189 5.92168 17.2189 4.96005 17.834 4.36923ZM16.8017 7.50404C17.8084 8.47103 19.3512 8.61588 20.5187 7.93954L21.7249 9.0981L13.3744 17.1191L12.2587 16.0474C11.9736 15.7736 11.5115 15.7737 11.2265 16.0474C10.9414 16.3212 10.9414 16.7652 11.2265 17.0389L12.3421 18.1106L9.43087 20.907L8.2247 19.7484C8.92881 18.6269 8.778 17.1451 7.77128 16.1781C6.76456 15.2111 5.22183 15.0662 4.05429 15.7426L2.84812 14.584L5.75935 11.7876L6.87502 12.8593C7.16008 13.1331 7.62224 13.133 7.90726 12.8593C8.19228 12.5855 8.19228 12.1416 7.90726 11.8678L6.79159 10.7961L15.1421 2.77516L16.3483 3.93373C15.6442 5.05522 15.795 6.53705 16.8017 7.50404Z" fill="#181725" stroke="#181725" stroke-width="0.3"/>
<path d="M8.50667 13.4352C8.22168 13.7089 8.22172 14.1527 8.50667 14.4264L9.59421 15.471C9.8792 15.7448 10.3413 15.7448 10.6262 15.471C10.9112 15.1973 10.9112 14.7535 10.6262 14.4798L9.53868 13.4352C9.53867 13.4352 9.53867 13.4352 9.53867 13.4352C9.25372 13.1614 8.79164 13.1614 8.50667 13.4352Z" fill="#181725" stroke="#181725" stroke-width="0.3"/>
</svg>
