<?xml version="1.0" encoding="iso-8859-1"?>
<!-- Generator: Adobe Illustrator 18.1.1, SVG Export Plug-In . SVG Version: 6.00 Build 0)  -->
<svg height='22' width='22' fill='black' version="1.1" id="Capa_1" xmlns="http://www.w3.org/2000/svg" xmlns:xlink="http://www.w3.org/1999/xlink" x="0px" y="0px"
	 viewBox="0 0 259.665 259.665" style="enable-background:new 0 0 259.665 259.665;" xml:space="preserve">
<g>
	<path id="path6226" d="M132.032,0.004c-2.649-0.107-4.855,2.011-4.855,4.662v25.031C74.472,30.909,29.131,67.95,17.603,119.625
		C5.88,172.169,32.233,225.879,80.964,248.762s106.887,8.858,139.832-33.721s31.92-102.396-2.463-143.822
		c-4.239-5.324-12.147,1.241-7.693,6.387c31.428,37.865,32.361,92.395,2.248,131.314c-30.113,38.919-83.132,51.705-127.674,30.789
		s-68.567-69.878-57.852-117.906c10.521-47.157,51.743-80.87,99.814-82.078v24.941c0,3.628,3.958,5.868,7.068,4.002l50-30
		c3.021-1.813,3.021-6.191,0-8.004l-50-30C133.575,0.262,132.814,0.035,132.032,0.004z M136.511,12.908l36.262,21.758
		l-36.262,21.758V12.908z M46.466,177.137c-1.896,0.073-3.023,2.149-2.051,3.779c19.874,34.422,45.239,56.25,85.428,56.25
		c3.381,0.048,3.381-5.048,0-5c-38.41,0-61.672-20.104-81.098-53.75C48.287,177.595,47.406,177.1,46.466,177.137z"/>
</g>
<g>
</g>
<g>
</g>
<g>
</g>
<g>
</g>
<g>
</g>
<g>
</g>
<g>
</g>
<g>
</g>
<g>
</g>
<g>
</g>
<g>
</g>
<g>
</g>
<g>
</g>
<g>
</g>
<g>
</g>
</svg>
