<svg width="23" height="23" viewBox="0 0 25 25" fill="none" xmlns="http://www.w3.org/2000/svg">
<path fill-rule="evenodd" clip-rule="evenodd" d="M22.669 22.6543C22.8625 22.4622 22.863 22.1494 22.6703 21.9566L18.3049 17.5913C19.7912 15.9327 20.7017 13.7525 20.7017 11.3508C20.7017 6.18819 16.5135 2 11.3508 2C6.18819 2 2 6.18819 2 11.3508C2 16.5135 6.18819 20.7017 11.3508 20.7017C13.7624 20.7017 15.9475 19.7813 17.606 18.2852L21.9739 22.653C22.1657 22.8449 22.4765 22.8454 22.669 22.6543V22.6543ZM2.9843 11.3508C2.9843 6.7394 6.7394 2.9843 11.3508 2.9843C15.9623 2.9843 19.7174 6.7394 19.7174 11.3508C19.7174 15.9623 15.9623 19.7174 11.3508 19.7174C6.7394 19.7174 2.9843 15.9623 2.9843 11.3508Z" fill="#262626" stroke="#262626" stroke-width="2.5" stroke-linecap="round" stroke-linejoin="round"/>
</svg>
