<svg width="19" height="19" viewBox="0 0 19 19" fill="none" xmlns="http://www.w3.org/2000/svg">
<path d="M10.6538 4.39659L10.3976 4.13998V4.50257V11.9413C10.3976 12.2512 10.2745 12.5484 10.0554 12.7675C9.83627 12.9866 9.53907 13.1097 9.22918 13.1097C8.91928 13.1097 8.62208 12.9866 8.40295 12.7675C8.18383 12.5484 8.06072 12.2512 8.06072 11.9413V4.50257V4.1402L7.80461 4.39655L6.32671 5.87577C6.32669 5.87578 6.32668 5.8758 6.32666 5.87581C6.10724 6.09506 5.80971 6.21817 5.49952 6.21806C5.1893 6.21795 4.89184 6.09461 4.67257 5.87518C4.45329 5.65575 4.33017 5.3582 4.33028 5.04799C4.33039 4.73778 4.45372 4.44032 4.67315 4.22104L8.40306 0.493775L8.4034 0.493433C8.51162 0.384593 8.64029 0.29822 8.782 0.239281C8.92372 0.180342 9.07569 0.15 9.22918 0.15C9.38266 0.15 9.53463 0.180342 9.67635 0.239281C9.81807 0.29822 9.94673 0.384593 10.055 0.493434L10.0553 0.493756L13.7851 4.22229C13.7851 4.22229 13.7851 4.2223 13.7851 4.22231C13.7852 4.22232 13.7852 4.22233 13.7852 4.22234C13.8937 4.33098 13.9798 4.45993 14.0385 4.60184C14.0973 4.74377 14.1275 4.89588 14.1274 5.04948C14.1274 5.20308 14.0971 5.35517 14.0382 5.49705C13.9794 5.63894 13.8932 5.76785 13.7845 5.87643C13.6759 5.985 13.5469 6.07111 13.405 6.12984C13.2631 6.18857 13.111 6.21877 12.9573 6.21872C12.8037 6.21866 12.6517 6.18836 12.5098 6.12953C12.3679 6.0707 12.239 5.98452 12.1305 5.8759C12.1304 5.87588 12.1304 5.87586 12.1304 5.87584L10.6538 4.39659ZM2.63691 10.399H2.48691V10.549V15.8228V15.9728H2.63691H15.8214H15.9714V15.8228V10.549V10.399H15.8214H14.503C14.1931 10.399 13.8959 10.2759 13.6768 10.0568C13.4576 9.83763 13.3345 9.54043 13.3345 9.23054C13.3345 8.92065 13.4576 8.62345 13.6768 8.40432C13.8959 8.18519 14.1931 8.06209 14.503 8.06209H15.8214C16.481 8.06209 17.1136 8.3241 17.58 8.79049C18.0463 9.25687 18.3084 9.88943 18.3084 10.549V15.8228C18.3084 16.4824 18.0463 17.1149 17.58 17.5813C17.1136 18.0477 16.481 18.3097 15.8214 18.3097H2.63691C1.97734 18.3097 1.34478 18.0477 0.878398 17.5813C0.412013 17.1149 0.15 16.4824 0.15 15.8228V10.549C0.15 9.88943 0.412013 9.25687 0.878398 8.79049C1.34478 8.3241 1.97734 8.06209 2.63691 8.06209H3.95536C4.26525 8.06209 4.56246 8.18519 4.78158 8.40432C5.00071 8.62345 5.12381 8.92065 5.12381 9.23054C5.12381 9.54043 5.00071 9.83763 4.78158 10.0568C4.56246 10.2759 4.26525 10.399 3.95536 10.399H2.63691Z" fill="#54ab37" stroke="white" stroke-width="0.3"/>
</svg>
