<svg width="18" height="18" viewBox="0 0 16 10" fill="none" xmlns="http://www.w3.org/2000/svg">
<path d="M13.1614 1.26831L13.1614 1.26829L13.1596 1.27014L8.92799 5.6618L8.92753 5.66228L8.02067 6.61594L2.88262 1.27023C2.77073 1.15381 2.64437 1.05721 2.50293 0.995891C2.36617 0.936603 2.21581 0.900026 2.06316 0.900026C1.90719 0.900026 1.75402 0.923011 1.60967 0.997277C1.47659 1.05533 1.33906 1.13816 1.23317 1.24833L1.23307 1.24824L1.22963 1.2522C1.13085 1.3664 1.03911 1.49639 0.980852 1.64186C0.922146 1.78845 0.9 1.95523 0.9 2.10615C0.9 2.26334 0.934858 2.41766 0.990414 2.56795L0.990381 2.56796L0.991378 2.57045C1.04963 2.71591 1.14176 2.84697 1.24369 2.95303L7.20159 9.15172C7.30657 9.26095 7.43378 9.34478 7.57075 9.40416L7.57074 9.4042L7.57337 9.40525C7.71849 9.46332 7.86816 9.50002 8.02105 9.50002C8.1737 9.50002 8.32406 9.46345 8.46083 9.40416C8.5978 9.34478 8.72501 9.26095 8.82999 9.15172L14.7879 2.95303L14.7879 2.95305L14.7897 2.95106C14.9978 2.7225 15.1 2.42382 15.1 2.11711C15.1 1.80575 14.9737 1.50733 14.7668 1.29214C14.5494 1.06587 14.2718 0.944369 13.9704 0.943835C13.6676 0.932302 13.3789 1.05389 13.1614 1.26831Z" fill="black" stroke="#181725" stroke-width="0.2"/>
</svg>
