<svg width="20" height="15" viewBox="0 0 20 15" fill="none" xmlns="http://www.w3.org/2000/svg">
<path d="M18.5523 3.66598L18.5519 3.66632L8.62968 13.6426C8.25928 13.9947 7.77249 14.1996 7.27943 14.1996C6.78285 14.1996 6.29898 13.9922 5.95441 13.6465L0.980486 8.65626C0.643256 8.31792 0.45 7.83504 0.45 7.32479C0.45 6.83469 0.650214 6.36758 1.00192 5.99346C1.36486 5.6503 1.82912 5.45957 2.33459 5.4403C2.83086 5.44223 3.29214 5.6301 3.65594 5.97598L6.96071 9.29161L7.27943 9.61138L7.59815 9.29161L15.8768 0.985696C16.2406 0.639818 16.7019 0.451949 17.1982 0.450015C17.7062 0.469378 18.1694 0.661682 18.5309 1.02445C18.8788 1.37342 19.0828 1.83932 19.0828 2.33451C19.0828 2.84477 18.8895 3.32764 18.5523 3.66598Z" fill="#53B175" stroke="#FCFCFC" stroke-width="0.9"/>
</svg>
