<svg width="25" height="25" viewBox="0 0 10 16" fill="none" xmlns="http://www.w3.org/2000/svg">
<path d="M1.26819 2.83862L1.26816 2.83864L1.27002 2.84043L5.66168 7.07201L5.66215 7.07247L6.61582 7.97933L1.27011 13.1174C1.15369 13.2293 1.05708 13.3556 0.995768 13.4971C0.93648 13.6338 0.899904 13.7842 0.899904 13.9368C0.899904 14.0928 0.922889 14.246 0.997155 14.3903C1.05521 14.5234 1.13803 14.6609 1.24821 14.7668L1.24811 14.7669L1.25208 14.7704C1.36628 14.8692 1.49627 14.9609 1.64174 15.0191C1.78832 15.0779 1.95511 15.1 2.10603 15.1C2.26322 15.1 2.41754 15.0651 2.56782 15.0096L2.56784 15.0096L2.57033 15.0086C2.71579 14.9504 2.84685 14.8582 2.9529 14.7563L9.1516 8.79841C9.26083 8.69343 9.34466 8.56622 9.40404 8.42925L9.40407 8.42926L9.40513 8.42663C9.4632 8.28151 9.4999 8.13184 9.4999 7.97895C9.4999 7.8263 9.46333 7.67594 9.40404 7.53917C9.34466 7.4022 9.26083 7.27499 9.1516 7.17001L2.9529 1.21211L2.95293 1.21209L2.95093 1.21027C2.72237 1.00215 2.4237 0.9 2.11698 0.9C1.80562 0.9 1.50721 1.02633 1.29201 1.23317C1.06574 1.45065 0.944245 1.7282 0.943712 2.02959C0.932178 2.33244 1.05377 2.62108 1.26819 2.83862Z" fill="#000" stroke="#000000" stroke-width="0.1"/>
</svg>
